<?xml version="1.0" encoding="utf-8" standalone="yes"?><!-- Generator: Adobe Illustrator 26.5.0, SVG Export Plug-In . SVG Version: 6.00 Build 0)  --><svg xmlns="http://www.w3.org/2000/svg" xmlns:xlink="http://www.w3.org/1999/xlink" version="1.2" baseProfile="tiny-ps" viewBox="0 0 512 512" xml:space="preserve"><title>C</title><rect fill="#013841" width="512" height="512"></rect><path fill-rule="evenodd" fill="#FFFFFF" d="M215.79,176.24c0.2,0,0.41,0,0.62,0.03l27.59-47.2l-45.92,26.53h-0.02l-44.19,25.53  h54.19C209.44,178.25,212.38,176.24,215.79,176.24 M288.75,181.13c0.12-0.24,0.25-0.51,0.41-0.76L256,123.64l-33.02,56.49  c0.2,0.33,0.39,0.65,0.56,0.99H256H288.75z M216.79,336.12c-0.33,0.03-0.65,0.05-0.99,0.05c-3.52,0-6.54-2.12-7.85-5.16h-53.82  l43.94,25.39h0.02l46.13,26.65L216.79,336.12z M288.99,331.73c-0.14-0.24-0.25-0.48-0.36-0.72H256h-32.33  c-0.15,0.34-0.31,0.65-0.5,0.96L256,388.14L288.99,331.73z M304.35,331.01c-1.31,3.04-4.33,5.16-7.85,5.16  c-0.43,0-0.84-0.03-1.25-0.1l-27.44,46.98c30.01-17.35,60.05-34.68,90.06-52.04H304.35z M167.1,260.64  c-0.86-1.33-1.37-2.93-1.37-4.64c0-1.76,0.53-3.4,1.46-4.77l-27.03-46.26V256v50.79L167.1,260.64z M174.96,264.56  c-0.21,0-0.43,0.03-0.65,0.03c-0.2,0-0.42-0.03-0.65-0.03l-33.5,57.34l-0.86,1.46h1.56h67.48c0.15-0.28,0.34-0.55,0.51-0.82  l-17.71-30.27L174.96,264.56z M174.31,247.4c0.19,0,0.34,0.02,0.53,0.03l16.2-27.74l17.6-30.14c-0.15-0.25-0.31-0.51-0.45-0.78  h-67.57h-1.11l0.64,1.09l33.62,57.57C173.96,247.42,174.13,247.4,174.31,247.4 M321.24,296.81c-1.18,1.1-2.66,1.88-4.32,2.17  l-13.65,23.35c0.26,0.33,0.48,0.67,0.68,1.03h62.03L321.24,296.81z M323.9,218.06c0.02,0.22,0.03,0.45,0.03,0.65  c0,4.75-3.84,8.59-8.58,8.59c-4.73,0-8.57-3.84-8.57-8.59c0-1.95,0.65-3.75,1.76-5.2l-11.77-20.11h-0.27  c-3.31,0-6.18-1.87-7.61-4.63H256h-32.6c-1.42,2.75-4.3,4.63-7.61,4.63c-0.17,0-0.36-0.02-0.55-0.02l-17.64,30.17l-16.17,27.68  c0.93,1.37,1.46,3.01,1.46,4.77c0,1.73-0.51,3.33-1.38,4.66l16.2,27.75l17.89,30.61h0.19c3.21,0,5.99,1.74,7.47,4.34H256h33.04  c1.45-2.57,4.19-4.31,7.35-4.34l13.01-22.27c-1.62-1.57-2.63-3.76-2.63-6.18c0-4.75,3.84-8.58,8.57-8.58c4.42,0,8.05,3.32,8.52,7.62  l44.56,26.43l3.43,2.04l7.55,4.47v2.57v2.15l-1.9,1.11l-1.56,0.9l-3.02,1.74c-37.61,21.73-75.19,43.46-112.8,65.17l-2.24,1.3  l-1.9,1.09l-1.87-1.09l-2.24-1.3l-57.59-33.26l-55.21-31.91l-4.59-2.65l-1.9-1.11v-2.15v-5.4V256v-63.94v-5.16v-2.17l1.9-1.11  l4.32-2.49l55.48-32.05l57.37-33.14l2.46-1.42l1.87-1.09l1.9,1.09l2.44,1.42l57.36,33.14l55.49,32.05l2.37,1.36l1.95,1.13l1.9,1.11  v2.17v2.09l-7.55,3.97l-2.57,1.33L323.9,218.06z M313.95,155.6l44.2,25.53h-53.91c-1.38-2.88-4.32-4.89-7.74-4.89  c-0.31,0-0.6,0.03-0.89,0.05l-27.59-47.21l45.92,26.53H313.95z M363.55,188.78l-46.78,24.7l-13.85-24.7h60.65"></path></svg>