<?xml version="1.0" encoding="utf-8" standalone="yes"?><!-- Generator: Adobe Illustrator 26.5.0, SVG Export Plug-In . SVG Version: 6.00 Build 0)  --><svg xmlns="http://www.w3.org/2000/svg" xmlns:xlink="http://www.w3.org/1999/xlink" version="1.2" baseProfile="tiny-ps" viewBox="0 0 512 512" xml:space="preserve"><title>Cultrd</title><rect fill="#013841" width="512" height="512"></rect><g><path fill="#FFFFFF" d="M120.8,258.25c-0.04,1.68,0.61,3.35,1.77,4.56l129.13,134.2c1.19,1.24,2.86,1.95,4.58,1.95   c1.72,0,3.39-0.71,4.58-1.95l129.13-134.2c1.17-1.21,1.82-2.88,1.77-4.56c-0.04-1.68-0.77-3.31-1.99-4.47l-51.16-48.25h-57.19   l0,80.77l33,33l1.82,1.82l-1.78,1.85l-56.29,58.5l-1.89,1.96l-1.89-1.96l-56.29-58.5l-1.78-1.85l1.82-1.82l33-33v-80.77l-57.19,0   l-51.16,48.25C121.57,254.94,120.84,256.57,120.8,258.25z M294.9,281.81l-0.77-0.77v-1.08v-59.09v-2.62h2.62h35.77h1.04l0.76,0.71   l40.14,37.85l1.92,1.82l-1.83,1.91l-47.64,49.51l-1.85,1.92l-1.89-1.89L294.9,281.81z M138.11,256.81l40.14-37.85l0.76-0.71h1.04   h35.77h2.62v2.62v59.09v1.08l-0.77,0.77l-28.27,28.27l-1.89,1.89l-1.85-1.92l-47.64-49.51l-1.83-1.91L138.11,256.81z"></path><path fill="#FFFFFF" d="M258.2,180.47c-3.86,0-6.99,3.14-6.99,6.99c0,3.86,3.14,6.99,6.99,6.99c3.86,0,6.99-3.14,6.99-6.99   C265.19,183.6,262.06,180.47,258.2,180.47z"></path><circle fill="#FFFFFF" cx="231.28" cy="154.13" r="12.12"></circle><path fill="#FFFFFF" d="M274.22,113.81c-10.57,0-19.17,8.6-19.17,19.17c0,10.57,8.6,19.17,19.17,19.17   c10.57,0,19.17-8.6,19.17-19.17C293.39,122.41,284.79,113.81,274.22,113.81z"></path></g></svg>